<svg width="18" height="14" viewBox="0 0 18 14" fill="none" xmlns="http://www.w3.org/2000/svg">
<path fill-rule="evenodd" clip-rule="evenodd" d="M2 1C2 0.447715 2.44772 0 3 0H17C17.5523 0 18 0.447715 18 1C18 1.55228 17.5523 2 17 2H3C2.44772 2 2 1.55228 2 1ZM0 7C0 6.44772 0.447715 6 1 6H17C17.5523 6 18 6.44772 18 7C18 7.55228 17.5523 8 17 8H1C0.447716 8 0 7.55228 0 7ZM7 12C6.44772 12 6 12.4477 6 13C6 13.5523 6.44771 14 7 14H17C17.5523 14 18 13.5523 18 13C18 12.4477 17.5523 12 17 12H7Z" fill="white"/>
</svg>
