<svg data-name="Layer 1" viewBox="0 0 512 512" xmlns="http://www.w3.org/2000/svg"><path d="M314.757 147.525H197.243a49.717 49.717 0 0 0-49.718 49.718v117.514a49.718 49.718 0 0 0 49.718 49.718h117.514a49.718 49.718 0 0 0 49.717-49.718V197.243a49.717 49.717 0 0 0-49.717-49.718ZM256 324.391A68.391 68.391 0 1 1 324.391 256 68.391 68.391 0 0 1 256 324.391Zm71.242-122.811a16.271 16.271 0 1 1 16.27-16.271 16.271 16.271 0 0 1-16.27 16.271Z" fill="#ffffff" class="fill-000000"></path><path d="M256 211.545A44.455 44.455 0 1 0 300.455 256 44.455 44.455 0 0 0 256 211.545Z" fill="#ffffff" class="fill-000000"></path><path d="M256 0C114.615 0 0 114.615 0 256s114.615 256 256 256 256-114.615 256-256S397.385 0 256 0Zm133.333 312.5a76.836 76.836 0 0 1-76.833 76.833h-113a76.837 76.837 0 0 1-76.834-76.833v-113a76.836 76.836 0 0 1 76.834-76.833h113a76.836 76.836 0 0 1 76.833 76.833Z" fill="#ffffff" class="fill-000000"></path></svg>